# xmcd
#
# Track frame offsets:
#	150
#	7050
#	27882
#	48848
#	70765
#	89062
#	104556
#	125143
#	140375
#	166636
#	180046
#
# Disc length: 2957 seconds
#
# Revision: 1
# Processed by: cddbd v1.5.2PL0 Copyright (c) Steve Scherf et al.
# Submitted via: audiograbber 1.83.01
#
DISCID=8b0b8b0b
DTITLE=Jennings, Shooter and The .357's - Live at Irving Plaza 4.18.06
DYEAR=2006
DGENRE=Country
TTITLE0=Intro by Little Steven
TTITLE1=Electric rodeo
TTITLE2=Gone to Carolina
TTITLE3=Busted in Baylor County
TTITLE4=Lonesome blues
TTITLE5=Manifesto No. 2
TTITLE6=Manifesto No. 1
TTITLE7=Steady at the wheel
TTITLE8=Southern comfort
TTITLE9=It ain't easy
TTITLE10=Daddy's farm
EXTD=
EXTT0=
EXTT1=
EXTT2=
EXTT3=
EXTT4=
EXTT5=
EXTT6=
EXTT7=
EXTT8=
EXTT9=
EXTT10=
PLAYORDER=
